HIERARCHY
ROOT pelvis
{
	OFFSET 0.000000 0.000000 0.000000
	CHANNELS 6 Xposition Yposition Zposition Zrotation Xrotation Yrotation
	JOINT lfemur
	{
		OFFSET 11.446000 0.000000 0.000000
		CHANNELS 3 Zrotation Xrotation Yrotation
		JOINT ltibia
		{
			OFFSET 0.000000 -42.030400 0.000000
			CHANNELS 3 Zrotation Xrotation Yrotation
			JOINT lfoot
			{
				OFFSET 0.000000 -39.930200 0.000000
				CHANNELS 3 Zrotation Xrotation Yrotation
				JOINT ltoes
				{
					OFFSET 0.000000 0.000000 11.775800
					CHANNELS 3 Zrotation Xrotation Yrotation
					End Site
					{
					    OFFSET 0.000000 0.000000 5.000000
					}
				}
			}
		}
	}
	JOINT rfemur
	{
		OFFSET -11.446000 0.000000 0.000000
		CHANNELS 3 Zrotation Xrotation Yrotation
		JOINT rtibia
		{
			OFFSET 0.000000 -42.030400 0.000000
			CHANNELS 3 Zrotation Xrotation Yrotation
			JOINT rfoot
			{
				OFFSET 0.000000 -39.930200 0.000000
				CHANNELS 3 Zrotation Xrotation Yrotation
				JOINT rtoes
				{
					OFFSET 0.000000 0.000000 11.775800
					CHANNELS 3 Zrotation Xrotation Yrotation
					End Site
					{
					    OFFSET 0.000000 0.000000 5.000000
					}
				}
			}
		}
	}
	JOINT thorax
	{
		OFFSET 0.000000 11.255600 -5.000000
		CHANNELS 3 Zrotation Xrotation Yrotation
		JOINT head
		{
			OFFSET 0.000000 43.799300 0.000000
			CHANNELS 3 Zrotation Xrotation Yrotation
			End Site
			{
			    OFFSET 0.000000 5.000000 0.000000
			}
		}
		JOINT lclavicle
		{
			OFFSET 0.000000 39.863000 0.000000
			CHANNELS 3 Zrotation Xrotation Yrotation
			JOINT lhumerus
			{
				OFFSET 17.380600 4.958300 0.000000
				CHANNELS 3 Zrotation Xrotation Yrotation
				JOINT lradius
				{
					OFFSET 0.000000 -27.561300 0.000000
					CHANNELS 3 Zrotation Xrotation Yrotation
					JOINT lhand
					{
						OFFSET 0.000000 -26.933000 0.000000
						CHANNELS 3 Zrotation Xrotation Yrotation
						End Site
						{
						    OFFSET 0.000000 -5.000000 0.000000
						}
					}
				}
			}
		}
		JOINT rclavicle
		{
			OFFSET 0.000000 39.863000 0.000000
			CHANNELS 3 Zrotation Xrotation Yrotation
			JOINT rhumerus
			{
				OFFSET -17.380600 4.958300 0.000000
				CHANNELS 3 Zrotation Xrotation Yrotation
				JOINT rradius
				{
					OFFSET 0.000000 -27.561300 0.000000
					CHANNELS 3 Zrotation Xrotation Yrotation
					JOINT rhand
					{
						OFFSET 0.000000 -26.933000 0.000000
						CHANNELS 3 Zrotation Xrotation Yrotation
						End Site
						{
						    OFFSET 0.000000 -5.000000 0.000000
						}
					}
				}
			}
		}
	}
}
MOTION
Frames:	20
Frame Time:	0.0333333
-201.978 89.3104 -11.9029 1.01572 0.198952 89.8073 -1.82483 0.963446 1.38719 1.57233 8.09283 19.364 2.00094 4.74602 -0.0179198 1.2393e-015 -5 -0 0.299984 2.43823 -2.44027 -0.501041 9.049 -17.5923 -2.05954 4.41534 -0.123361 3.20194e-016 -5 3.1927e-015 -2.7175 0.578303 -0.555281 -0.0869063 9.09464 5.40682 -3.97569e-016 -2.29224e-015 -9.93923e-017 77.7755 0.161133 69.7961 5.25098 -0.0616852 -53.6224 -0.530331 -6.96387 -9.98878 -3.97569e-016 -2.29224e-015 -9.93923e-017 -70.7549 9.02886 -36.3835 1.81399 -3.82181 28.6662 -1.75901 -1.04598 9.84332 
-201.906 89.3016 -11.93 0.949611 0.221174 89.7968 -1.86877 0.949966 1.35594 1.56787 8.09865 19.4098 2.03482 4.69971 -0.0175622 -6.56647e-016 -5 3.1927e-015 0.256469 2.35805 -2.4619 -0.505623 9.18409 -17.5581 -2.00262 4.31257 -0.122958 1.61796e-015 -5 -3.1927e-015 -2.70963 0.448835 -0.555306 0.188036 9.10819 5.02868 2.28454e-033 6.58474e-016 -1.98785e-016 77.8136 0.201921 69.3484 4.97699 -0.0609487 -53.3276 -0.267345 -6.62141 -9.9591 2.28454e-033 6.58474e-016 -1.98785e-016 -70.7829 9.07775 -36.387 1.79812 -3.84586 29.0924 -1.71355 -1.17649 9.84337 
-201.763 89.29 -11.9634 0.828176 0.227692 89.7288 -1.89449 0.914328 1.34984 1.55129 8.14459 19.49 2.04782 4.60423 -0.0162876 -2.26739e-015 -5 -0 0.248477 2.28773 -2.42149 -0.557589 9.26014 -17.5178 -1.93244 4.21369 -0.122942 -2.64011e-015 -5 -0 -2.69502 0.244295 -0.55562 0.620982 8.98483 4.33727 -7.95139e-016 1.01877e-015 9.93923e-017 77.8879 0.318454 68.8321 4.63608 -0.0615727 -52.993 0.073896 -6.23556 -9.92357 -7.95139e-016 1.01877e-015 9.93923e-017 -70.7773 9.03241 -36.5562 1.61136 -3.79913 29.5777 -1.57789 -1.45129 9.84446 
-201.616 89.2835 -11.9702 0.719795 0.183619 89.6523 -1.84614 0.884256 1.40597 1.52766 8.21328 19.5171 2.00758 4.49736 -0.0146902 1.43808e-015 -5 -0 0.32856 2.32994 -2.30433 -0.638686 9.13563 -17.5462 -1.92506 4.21396 -0.122942 6.95746e-016 -5 -0 -2.68275 0.128312 -0.570358 0.846906 8.54686 3.62452 -3.97569e-016 -1.86361e-015 -3.97569e-016 77.9638 0.46602 68.5499 4.44185 -0.0904256 -52.7567 0.187743 -6.11304 -9.91238 -3.97569e-016 -1.86361e-015 -3.97569e-016 -70.6817 8.88165 -36.7634 1.39807 -3.76944 29.4242 -1.45489 -1.59777 9.84515 
-201.489 89.2771 -11.9646 0.652025 0.134582 89.6475 -1.77877 0.906862 1.4724 1.5057 8.20363 19.4688 1.98367 4.41779 -0.0128946 6.01288e-016 -5 3.1927e-015 0.411555 2.43214 -2.22541 -0.67657 8.96187 -17.6266 -1.95276 4.22906 -0.122945 -2.04997e-015 -5 -0 -2.66133 0.0899183 -0.625108 0.863264 8.03667 3.12546 1.04313e-032 -3.00662e-015 1.98785e-016 78.0379 0.577398 68.498 4.37917 -0.0991448 -52.691 0.0691889 -6.21478 -9.92463 1.04313e-032 -3.00662e-015 1.98785e-016 -70.5792 8.80878 -36.7207 1.46584 -3.90617 28.8302 -1.4915 -1.43417 9.8444 
-201.372 89.2706 -11.9739 0.581912 0.131889 89.679 -1.78243 0.970163 1.47116 1.50054 8.08015 19.4472 2.01812 4.38547 -0.011025 3.35815e-015 -5 6.38541e-015 0.401101 2.46556 -2.25467 -0.654377 8.92247 -17.6458 -1.94933 4.17749 -0.122937 -2.83268e-015 -5 -0 -2.62964 -0.00150973 -0.684058 0.894814 7.80028 2.9079 -3.97569e-016 -7.3923e-016 3.97569e-016 78.0572 0.569437 68.719 4.56091 -0.0871483 -52.99 -0.189514 -6.46239 -9.95094 -3.97569e-016 -7.3923e-016 3.97569e-016 -70.5567 8.91161 -36.4399 1.76589 -4.17048 28.5585 -1.61572 -1.17945 9.8434 
-201.258 89.2651 -11.9973 0.476865 0.174823 89.6419 -1.8641 1.01056 1.39219 1.52719 7.94859 19.5549 2.03667 4.37888 -0.00920476 2.45247e-015 -5 3.1927e-015 0.321804 2.373 -2.31763 -0.635377 9.04474 -17.547 -1.90606 4.06058 -0.122919 4.17484e-016 -5 -3.1927e-015 -2.61177 -0.183501 -0.681394 0.981505 7.75996 2.7452 -3.97569e-016 -1.11195e-015 -3.97569e-016 77.9219 0.48342 69.1093 4.88877 -0.246285 -53.5269 -0.471759 -6.68408 -9.9843 -3.97569e-016 -1.11195e-015 -3.97569e-016 -70.5677 9.11394 -36.2254 1.92896 -4.38228 28.8146 -1.60244 -1.20641 9.84351 
-201.148 89.2596 -12.0041 0.39392 0.204967 89.523 -1.93014 1.03709 1.32173 1.5711 7.91057 19.7291 1.96656 4.34788 -0.00755711 -1.45617e-015 -5 6.38541e-015 0.284849 2.29761 -2.32025 -0.65924 9.14849 -17.4191 -1.86656 3.96592 -0.122906 -9.11889e-016 -5 -3.1927e-015 -2.60878 -0.354208 -0.616338 1.00882 7.65709 2.467 -1.31469e-033 3.78933e-016 1.98785e-016 77.7824 0.353361 69.3616 5.08709 -0.281254 -53.8743 -0.518136 -6.84044 -9.99106 -1.31469e-033 3.78933e-016 1.98785e-016 -70.5237 9.2866 -36.1929 1.83354 -4.46541 29.0714 -1.45256 -1.50599 9.84476 
-201.026 89.2525 -11.9727 0.417827 0.166453 89.4254 -1.88789 1.13907 1.35803 1.59006 7.94482 19.7971 1.86144 4.26086 -0.00597635 1.60142e-015 -5 3.1927e-015 0.351346 2.43796 -2.27595 -0.684233 9.04936 -17.3803 -1.84646 3.96985 -0.122908 -1.15178e-015 -5 6.38541e-015 -2.57723 -0.436704 -0.573743 1.03164 7.57454 2.2567 7.95139e-016 -2.65874e-015 -1.98785e-016 77.7107 0.276169 69.2591 5.02279 -0.0616175 -53.8654 -0.371692 -6.96652 -9.97783 7.95139e-016 -2.65874e-015 -1.98785e-016 -70.4294 9.31786 -36.1806 1.71683 -4.45099 29.0174 -1.38654 -1.72613 9.84585 
-200.893 89.2477 -11.9128 0.524529 0.06895 89.4033 -1.7393 1.30795 1.49817 1.56858 8.00064 19.7072 1.80564 4.13897 -0.00442867 -5.26194e-016 -5 3.1927e-015 0.488584 2.77083 -2.2361 -0.66651 8.75562 -17.4337 -1.84275 4.07616 -0.122926 -1.29174e-016 -5 -3.1927e-015 -2.49312 -0.456408 -0.614183 1.18128 7.67864 2.24513 3.97569e-016 2.29845e-016 -1.98785e-016 77.3689 0.335727 68.9775 4.97131 -0.284608 -53.8467 -0.527175 -7.00854 -9.99252 3.97569e-016 2.29845e-016 -1.98785e-016 -70.2856 9.13293 -36.1638 1.69896 -4.36311 28.9058 -1.46565 -1.71674 9.84581 
-200.789 89.2493 -11.8456 0.576255 -0.030547 89.3942 -1.57883 1.39026 1.62971 1.54653 8.08975 19.6034 1.77397 4.03239 -0.00314533 2.7395e-015 -5 -0 0.62415 3.01769 -2.19669 -0.62845 8.49927 -17.4935 -1.87493 4.18581 -0.122945 -1.93815e-015 -5 -0 -2.40248 -0.471211 -0.693179 1.35089 7.73507 2.09363 3.97569e-016 2.99419e-015 -0 77.1153 0.219186 69.0252 5.03939 -0.133081 -54.3386 -0.449746 -7.06098 -9.98128 3.97569e-016 2.99419e-015 -0 -69.9765 8.80132 -36.3228 1.62958 -4.27863 28.8781 -1.5027 -1.69495 9.84571 
-200.731 89.2498 -11.7845 0.523011 -0.0748284 89.347 -1.50311 1.33824 1.65995 1.56086 8.17905 19.6226 1.70936 3.97711 -0.00235711 1.30452e-015 -5 -0 0.698628 3.0016 -2.15492 -0.609046 8.49338 -17.5046 -1.9513 4.17164 -0.122945 -2.04248e-015 -5 -3.1927e-015 -2.37814 -0.525147 -0.741952 1.37107 7.48375 1.50409 -1.12072e-032 1.61513e-015 3.97569e-016 76.6158 -0.159122 69.2075 5.06035 -0.0917021 -54.5113 0.0740068 -6.56614 -9.92475 -1.12072e-032 1.61513e-015 3.97569e-016 -69.3844 8.5259 -36.6178 1.47645 -4.34999 28.7347 -1.40858 -1.8393 9.84649 
-200.689 89.2419 -11.7306 0.470167 -0.0489188 89.3168 -1.51041 1.30825 1.62761 1.58697 8.18715 19.6952 1.64721 3.96064 -0.00190973 -5.88864e-016 -5 -3.1927e-015 0.706218 2.87244 -2.1499 -0.60656 8.70511 -17.4962 -2.02451 4.01409 -0.122924 2.64414e-015 -5 -0 -2.45965 -0.65297 -0.777406 1.37049 7.1967 0.816617 -6.12085e-033 8.82107e-016 3.97569e-016 75.7927 -0.731404 69.1839 4.86869 -0.111597 -53.8567 1.00417 -5.60641 -9.83731 -6.12085e-033 8.82107e-016 3.97569e-016 -68.4808 8.37251 -36.7674 1.42466 -4.59185 28.5166 -1.31646 -2.06812 9.84786 
-200.642 89.2273 -11.6688 0.50876 -0.00545794 89.3794 -1.5076 1.38089 1.63427 1.5824 8.15464 19.6437 1.63836 3.94066 -0.00149333 -1.40392e-015 -5 -0 0.708176 2.85081 -2.1786 -0.602134 8.91652 -17.5465 -2.04503 3.83539 -0.122902 2.73329e-016 -5 -0 -2.64808 -0.843083 -0.866017 1.58519 7.28026 0.464511 3.97569e-016 7.33018e-016 -0 74.6873 -1.3805 69.1033 4.79685 -0.04944 -53.4441 1.66247 -5.0927 -9.77925 3.97569e-016 7.33018e-016 -0 -67.2046 8.15171 -36.7546 1.5239 -4.81937 28.6663 -1.29256 -2.26608 9.84917 
-200.622 89.2177 -11.5853 0.577154 0.00125868 89.5266 -1.42684 1.40363 1.7042 1.55318 8.23809 19.4235 1.63585 3.89579 -0.00110511 7.95139e-016 -5 -0 0.769725 2.93224 -2.17338 -0.592295 8.96021 -17.7043 -2.03379 3.77163 -0.122898 -2.50705e-015 -5 3.1927e-015 -2.90096 -1.00424 -1.01031 1.91339 7.63918 0.241663 7.95139e-016 1.06847e-015 1.98785e-016 73.2607 -2.08196 69.4096 5.1143 -0.000141152 -54.6789 1.56939 -5.53655 -9.7816 7.95139e-016 1.06847e-015 1.98785e-016 -65.4394 7.68126 -36.8814 1.65016 -4.89599 29.4882 -1.24081 -2.45513 9.85052 
-200.654 89.2165 -11.4913 0.581249 -0.0175761 89.6752 -1.30715 1.27376 1.77498 1.53336 8.43555 19.1817 1.58443 3.85869 -0.000742408 1.44155e-016 -5 -3.1927e-015 0.869061 2.98064 -2.1205 -0.57399 8.86203 -17.9076 -2.04685 3.81579 -0.122909 -1.75435e-015 -5 6.38541e-015 -3.12592 -1.05661 -1.13686 2.07001 7.96522 -0.239592 1.19271e-015 1.85118e-015 -0 71.3225 -2.98637 70.1114 5.67234 -0.0391143 -57.3549 1.22773 -6.41722 -9.8056 1.19271e-015 1.85118e-015 -0 -63.2278 6.99863 -37.1975 1.88526 -4.88234 31.0743 -1.1628 -2.64616 9.852 
-200.717 89.2189 -11.4111 0.542679 -0.019694 89.7352 -1.23652 1.12576 1.79809 1.5323 8.56196 19.0831 1.52233 3.86929 -0.000402463 -8.62192e-016 -5 -3.1927e-015 0.920208 2.9583 -2.09559 -0.536729 8.7584 -18.0066 -2.09732 3.86798 -0.122923 -6.60851e-016 -5 -9.57811e-015 -3.25744 -1.02246 -1.19091 2.04633 8.27572 -0.802014 4.56908e-033 1.31695e-015 -1.98785e-016 68.7232 -4.13776 70.7477 6.07624 -0.0554456 -60.2734 1.41144 -6.8749 -9.78271 4.56908e-033 1.31695e-015 -1.98785e-016 -60.7933 6.19851 -37.3116 2.55786 -4.85166 33.6505 -1.19939 -2.75152 9.84891 
-200.782 89.2234 -11.3508 0.521749 0.00722586 89.6813 -1.23348 1.07415 1.78356 1.54205 8.54542 19.1408 1.49386 3.92546 -8.24755e-005 1.95551e-015 -5 3.1927e-015 0.90061 2.89514 -2.12732 -0.487704 8.73893 -17.9393 -2.16526 3.88074 -0.122932 -7.90205e-016 -5 3.1927e-015 -3.33561 -0.968326 -1.19048 2.03213 8.68782 -1.0675 -3.10353e-033 -8.94531e-016 -1.98785e-016 65.4823 -5.38382 71.012 6.21165 -0.056444 -63.2695 1.98229 -6.8153 -9.72349 -3.10353e-033 -8.94531e-016 -1.98785e-016 -58.2251 5.27567 -36.9312 3.80494 -4.79046 37.2738 -1.33798 -2.76682 9.8389 
-200.87 89.2277 -11.2915 0.492083 0.0370025 89.5674 -1.23712 1.01188 1.76261 1.56064 8.52578 19.2463 1.46145 3.9982 0.000220344 1.55556e-015 -5 -6.38541e-015 0.881708 2.76346 -2.13886 -0.455085 8.80081 -17.8171 -2.24389 3.86919 -0.122938 -1.79655e-015 -5 3.1927e-015 -3.43768 -0.917255 -1.18579 2.07877 9.09613 -1.10547 4.31046e-033 1.2424e-015 -1.98785e-016 61.8296 -6.6281 71.0582 6.26663 -0.00132832 -67.1308 2.39283 -6.88098 -9.67684 4.31046e-033 1.2424e-015 -1.98785e-016 -55.3543 4.21772 -36.2374 5.35862 -4.71996 41.2894 -1.382 -2.87443 9.83411 
-200.992 89.2336 -11.2198 0.41696 0.0432491 89.4397 -1.20529 0.844139 1.7573 1.57625 8.58412 19.3409 1.39646 4.07602 0.000508753 2.8526e-015 -5 -3.1927e-015 0.910919 2.56177 -2.08016 -0.450847 8.85725 -17.7391 -2.33822 3.89071 -0.122951 -1.62499e-015 -5 -6.38541e-015 -3.55236 -0.872275 -1.19914 2.155 9.46993 -1.10049 3.97569e-016 1.71452e-015 -0 57.6631 -7.7973 71.058 6.40016 -0.229841 -71.5334 2.43082 -7.17934 -9.67502 3.97569e-016 1.71452e-015 -0 -52.039 3.06664 -35.5842 6.82172 -4.68703 44.7222 -1.24055 -3.20163 9.84126 
